<svg width="28" height="28" viewBox="0 0 28 28" fill="none" xmlns="http://www.w3.org/2000/svg">
<path d="M14 28C21.732 28 28 21.732 28 14C28 6.26801 21.732 0 14 0C6.26801 0 0 6.26801 0 14C0 21.732 6.26801 28 14 28Z" fill="url(#paint0_linear_258_355)"/>
<path d="M11.6213 20.545C9.78817 19.431 8.46482 17.6471 7.9338 15.5743C7.40278 13.5015 7.70619 11.3039 8.77923 9.45095C9.85227 7.59794 11.6099 6.23629 13.6769 5.65672C15.7439 5.07715 17.9564 5.3256 19.842 6.34901L11.6213 20.545Z" fill="white"/>
<mask id="mask0_258_355" style="mask-type:luminance" maskUnits="userSpaceOnUse" x="7" y="5" width="13" height="16">
<path d="M11.6213 20.545C9.78817 19.431 8.46482 17.6471 7.9338 15.5743C7.40278 13.5015 7.70619 11.3039 8.77923 9.45095C9.85227 7.59794 11.6099 6.23629 13.6769 5.65672C15.7439 5.07715 17.9564 5.3256 19.842 6.34901L11.6213 20.545Z" fill="white"/>
</mask>
<g mask="url(#mask0_258_355)">
<path opacity="0.79" d="M16.4624 7.462L19.8701 6.349L18.1417 10.591L16.4624 7.462Z" fill="#5C3E7C"/>
</g>
<path d="M16.4623 7.43399C17.3975 7.97221 18.217 8.68867 18.8743 9.54245C19.5315 10.3962 20.0135 11.3706 20.2927 12.41C20.572 13.4494 20.643 14.5334 20.5018 15.6001C20.3605 16.6668 20.0098 17.6953 19.4695 18.627C18.9293 19.5586 18.2101 20.3752 17.3532 21.03C16.4962 21.6847 15.5181 22.1649 14.4749 22.4431C13.4316 22.7213 12.3436 22.7921 11.2729 22.6514C10.2022 22.5107 9.16977 22.1612 8.23462 21.623L16.4623 7.43399Z" fill="#CEC1D6"/>
<defs>
<linearGradient id="paint0_linear_258_355" x1="0" y1="14" x2="28" y2="14" gradientUnits="userSpaceOnUse">
<stop stop-color="#E54577"/>
<stop offset="0.27" stop-color="#C03B78"/>
<stop offset="0.76" stop-color="#7F2B7B"/>
<stop offset="1" stop-color="#66247C"/>
</linearGradient>
</defs>
</svg>
